<?xml version="1.0" encoding="iso-8859-1"?>
<!-- Generator: Adobe Illustrator 19.1.0, SVG Export Plug-In . SVG Version: 6.00 Build 0)  -->
<svg version="1.1" id="Capa_1" xmlns="http://www.w3.org/2000/svg" xmlns:xlink="http://www.w3.org/1999/xlink" x="0px" y="0px"
	 viewBox="0 0 218.484 218.484" style="enable-background:new 0 0 218.484 218.484;" xml:space="preserve">
<g>
	<g id="group-152svg">
		<path id="path-1_59_" style="fill:#FBB713;" d="M163.948,202.42h15.775c3.042,0,5.508,1.199,5.508,2.678
			c0,1.478-2.466,2.678-5.508,2.678h-0.733c-3.042,0-5.508,1.197-5.508,2.676c0,1.478,2.466,2.678,5.508,2.678h33.912
			c3.04,0,5.506,1.198,5.506,2.676c0,1.48-2.466,2.678-5.506,2.678h-40.754h-44.792c-3.042,0-5.507-1.198-5.507-2.678
			c0-1.478,2.465-2.676,5.507-2.676h9.412c3.041,0,5.507-1.2,5.507-2.678c0-1.479-2.466-2.676-5.507-2.676H91.976
			c-3.042,0-5.508-1.2-5.508-2.678c0-1.479,2.466-2.678,5.508-2.678h10.586H163.948z"/>
		<path id="path-2_59_" style="fill:#FBB713;" d="M18.496,160.629h3.75c0.723,0,1.31,0.81,1.31,1.808
			c0,0.999-0.587,1.807-1.31,1.807h-0.175c-0.723,0-1.309,0.81-1.309,1.809c0,0.998,0.586,1.808,1.309,1.808h8.063
			c0.723,0,1.309,0.808,1.309,1.807c0,0.998-0.586,1.809-1.309,1.809h-9.689H9.797c-0.723,0-1.31-0.811-1.31-1.809
			c0-0.999,0.587-1.807,1.31-1.807h2.237c0.723,0,1.309-0.81,1.309-1.808c0-0.999-0.586-1.809-1.309-1.809H1.385
			c-0.723,0-1.309-0.808-1.309-1.807c0-0.998,0.586-1.808,1.309-1.808h2.517H18.496z"/>
		<path id="path-3_59_" style="fill:#FF3A2F;" d="M199.802,166.164h5.192c1.001,0,1.813,0.809,1.813,1.808
			c0,0.998-0.812,1.807-1.813,1.807h-0.241c-1.001,0-1.813,0.81-1.813,1.808c0,0.999,0.812,1.807,1.813,1.807h11.162
			c1,0,1.812,0.81,1.812,1.809c0,0.998-0.812,1.808-1.812,1.808h-13.414h-14.744c-1,0-1.812-0.81-1.812-1.808
			c0-0.999,0.812-1.809,1.812-1.809h3.099c1,0,1.812-0.808,1.812-1.807c0-0.998-0.812-1.808-1.812-1.808h-14.743
			c-1.001,0-1.813-0.809-1.813-1.807c0-0.999,0.812-1.808,1.813-1.808h3.484H199.802z"/>
		<path id="path-4_59_" style="fill:#142A3B;" d="M140.732,1.53L146.451,0l4.542,3.766l-6.555,5.288L140.732,1.53z"/>
		<path id="path-5_59_" style="fill:#142A3B;" d="M145.11,6.039L120.079,118.69L150.993,3.766L145.11,6.039z"/>
		<path id="path-6_58_" style="fill:#0CB04A;" d="M145.11,6.039L120.079,118.69L140.732,1.53L145.11,6.039z"/>
		<path id="path-7_58_" style="fill:#142A3B;" d="M177.81,13.374l5.91,0.384l3.071,5.016l-7.924,2.907L177.81,13.374z"/>
		<path id="path-8_58_" style="fill:#142A3B;" d="M180.485,19.038l-60.406,98.618l66.712-98.882L180.485,19.038z"/>
		<path id="path-9_55_" style="fill:#0CB04A;" d="M180.485,19.038l-60.406,98.618L177.81,13.374L180.485,19.038z"/>
		<path id="path-10_50_" style="fill:#FF3A2F;" d="M125.556,178.781h-19.217h-5.433H81.692l-13.345,25.154h32.559h5.433H138.9
			L125.556,178.781z"/>
		<path id="path-11_42_" style="fill:#A72425;" d="M80.79,177.158l-6.025,11.355c9.933,5.187,20.977,8.1,32.626,8.1
			c8.782,0,17.213-1.667,25.092-4.698l-7.83-14.757h-19.216h-5.432H80.79z"/>
		<path id="path-12_35_" style="fill:#FBB713;" d="M148.928,81.498c-0.42,0-0.828,0.024-1.243,0.034
			c-4.558-2.313-10.697-3.741-17.472-3.741c-9.249,0-17.322,2.654-21.772,6.611c-4.319-1.813-9.745-2.904-15.657-2.904
			c-0.419,0-0.828,0.024-1.243,0.034c-4.557-2.313-10.697-3.741-17.471-3.741c-10.007,0-18.64,3.105-22.79,7.607
			c-12.102,1.047-21.354,6.652-21.354,13.43c0,7.525,11.385,13.624,25.43,13.624c9.25,0,17.322-2.655,21.772-6.611
			c4.319,1.813,9.745,2.903,15.656,2.903c0.421,0,0.829-0.023,1.244-0.033c4.558,2.312,10.697,3.741,17.471,3.741
			c9.251,0,17.323-2.655,21.773-6.611c4.319,1.813,9.745,2.903,15.656,2.903c14.045,0,25.431-6.1,25.431-13.624
			C174.359,87.598,162.973,81.498,148.928,81.498z"/>
		<path id="path-13_29_" style="fill:#FF3A2F;" d="M181.834,105.929c0,49.066-35.017,88.841-78.208,88.841
			c-43.195,0-78.211-39.775-78.211-88.841H181.834z"/>
		<path id="path-14_24_" style="fill:#FFFFFF;" d="M83.244,180.837c-0.688,0-1.385-0.191-2.001-0.597
			c-20.888-13.66-35.061-36.953-38.887-63.902c-0.281-1.971,1.107-3.796,3.097-4.071c2.003-0.282,3.831,1.095,4.11,3.067
			c3.533,24.904,16.542,46.368,35.689,58.891c1.676,1.096,2.139,3.332,1.032,4.993C85.584,180.268,84.425,180.837,83.244,180.837z"
			/>
		<path id="path-15_22_" style="opacity:0.35;fill:#020403;enable-background:new    ;" d="M38.508,105.929H25.414
			c0,38.102,21.119,70.591,50.782,83.209l-7.849,14.797h5.906l6.533-14.797C56.091,176.52,38.508,144.031,38.508,105.929z"/>
		<path id="path-16_19_" style="opacity:0.35;fill:#020403;enable-background:new    ;" d="M181.833,105.929h-13.096
			c0,0.63-0.018,1.255-0.026,1.88H40.587l127.827,6.845c-2.451,34.278-19.169,62.842-41.956,74.488l6.532,14.793h5.91l-7.848-14.793
			C160.714,176.52,181.833,144.031,181.833,105.929z"/>
		<path id="path-17_17_" style="fill:#FF3A2F;" d="M186.791,103.907c0,2.157-1.763,3.902-3.94,3.902H24.39
			c-2.176,0-3.94-1.745-3.94-3.902l0,0c0-2.158,1.764-3.904,3.94-3.904h158.461C185.028,100.003,186.791,101.749,186.791,103.907
			L186.791,103.907z"/>
	</g>
</g>
<g>
</g>
<g>
</g>
<g>
</g>
<g>
</g>
<g>
</g>
<g>
</g>
<g>
</g>
<g>
</g>
<g>
</g>
<g>
</g>
<g>
</g>
<g>
</g>
<g>
</g>
<g>
</g>
<g>
</g>
</svg>
